<?xml version="1.0" encoding="UTF-8" standalone="no"?>
<!-- Created with Inkscape (http://www.inkscape.org/) -->
<svg xmlns:svg="http://www.w3.org/2000/svg" xmlns="http://www.w3.org/2000/svg" xmlns:inkscape="http://www.inkscape.org/namespaces/inkscape" xmlns:sodipodi="http://sodipodi.sourceforge.net/DTD/sodipodi-0.dtd" xmlns:ns1="http://sozi.baierouge.fr" xmlns:xlink="http://www.w3.org/1999/xlink" xmlns:dc="http://purl.org/dc/elements/1.1/" xmlns:cc="http://web.resource.org/cc/" version="1.0" width="548.32642" height="507.07309" id="svg19533" inkscape:version="0.91 r13725" xmlns:rdf="http://www.w3.org/1999/02/22-rdf-syntax-ns#">
  <defs id="defs19535"/>
  <g transform="translate(-87.34816,-140.30919)" id="layer1">
    <g transform="matrix(1.172689,0,0,1.1678202,-15.08407,-23.546723)" id="g20112">
      <path d="M 484.74031,458.76465 L 474.50587,492.25918 L 458.689,526.68412 L 453.10658,543.43138 L 467.99304,565.76107 L 486.60111,573.2043 L 515.44363,565.76107 L 523.81726,548.0834 L 524.74766,530.40573 L 509.86121,505.28483 L 493.11394,480.16393 L 487.53152,468.06868 L 484.74031,458.76465 z" id="path20104" style="fill:#a8d5f3;fill-opacity:1;fill-rule:evenodd;stroke:none;stroke-width:1px;stroke-linecap:butt;stroke-linejoin:miter;stroke-opacity:1"/>
      <path d="M 504.888,532.03633 L 501.73025,543.96558 L 501.73025,548.17591 L 506.29144,548.52677 L 510.85262,540.10612 L 510.85262,533.79064 L 504.888,532.03633 z" id="path20106" style="fill:#cfe4f1;fill-opacity:1;fill-rule:evenodd;stroke:none;stroke-width:1px;stroke-linecap:butt;stroke-linejoin:miter;stroke-opacity:1"/>
      <path d="M 134.21934,245.73667 L 119.81532,257.52178 L 98.864004,292.87712 L 91.007262,321.03045 L 91.66199,362.27834 L 102.79237,395.6695 L 128.32679,421.85864 L 149.93283,427.09646 L 173.50305,419.23972 L 184.63344,398.94314 L 185.94289,388.46748 L 260.58194,384.53911 L 271.0576,383.88438 L 285.46163,395.01477 L 310.99604,406.14515 L 345.69665,406.14515 L 367.95742,405.49042 L 394.14656,389.77694 L 415.7526,369.48036 L 435.39445,364.89726 L 458.30995,376.02764 L 464.20251,388.46748 L 466.16669,400.2526 L 449.14375,414.65662 L 449.14375,427.75119 L 456.34577,440.19103 L 475.33289,450.66669 L 495.62948,452.63088 L 536.22264,446.73832 L 548.00776,436.26266 L 552.59085,422.51336 L 550.62667,411.38298 L 539.49628,401.56205 L 541.46047,379.30128 L 542.76993,358.34997 L 536.22264,328.88719 L 521.81862,305.97169 L 501.52203,292.87712 L 468.13088,287.63929 L 417.06206,281.09201 L 398.07493,274.54472 L 380.39726,256.21233 C 380.39726,256.21233 371.23106,249.66504 368.61215,249.01031 C 365.99323,248.35558 369.26687,235.26101 369.26687,235.26101 L 375.15943,230.67791 L 374.5047,221.51171 L 363.37432,210.38133 L 352.24393,207.76242 L 352.89866,189.43002 L 366.64796,182.228 L 377.77835,179.60909 L 402.0033,180.91855 C 402.0033,180.91855 407.24113,186.8111 413.13368,186.8111 C 419.02624,186.8111 426.22825,185.50165 426.22825,185.50165 L 436.04918,176.99018 L 437.35864,167.16925 L 429.5019,156.03886 L 420.99043,151.45577 L 411.82423,156.69359 L 405.27694,161.93142 L 368.61215,158.65778 L 348.97029,142.28957 L 332.60208,142.28957 L 324.09061,146.21794 L 314.92441,156.03886 L 286.11635,155.38414 L 255.99884,153.41995 L 244.86846,146.21794 L 233.73807,150.14631 L 227.19079,159.96724 L 232.42862,170.44289 L 238.9759,177.64491 L 248.1421,177.64491 L 259.27249,174.37126 L 301.17511,177.64491 L 310.34131,179.60909 L 320.16224,187.46583 L 324.74534,191.3942 L 326.05479,210.38133 L 310.99604,216.92862 L 303.79402,225.44009 L 307.06767,232.6421 L 313.61495,237.2252 L 314.92441,249.01031 L 293.31837,256.86705 L 276.29543,278.47309 L 198.38274,277.16364 L 182.66925,275.19945 L 181.35979,267.34271 L 169.57468,252.28395 L 155.82538,245.73667 L 138.80244,245.08194 L 134.21934,245.73667 z" id="path20108" style="fill:#a3a6a9;fill-opacity:1;fill-rule:evenodd;stroke:none;stroke-width:1px;stroke-linecap:butt;stroke-linejoin:miter;stroke-opacity:1"/>
      <path d="M 240.94009,146.21794 L 231.11916,151.45577 L 227.84552,163.89561 L 237.66645,177.64491 L 248.79683,178.95436 L 253.37993,175.02599 L 293.31837,176.99018 L 307.7224,178.29963 L 317.54332,186.8111 L 324.74534,190.08475 L 332.60208,183.53746 L 344.38719,183.53746 L 354.20812,190.08475 L 363.37432,184.19219 L 371.88579,180.91855 L 400.03911,180.26382 L 408.55058,183.53746 L 417.71678,187.46583 L 426.88298,186.8111 L 436.70391,177.64491 L 436.70391,166.51452 L 426.88298,154.07468 L 420.99043,151.45577 L 409.86004,156.69359 L 405.93167,162.58615 L 379.0878,159.31251 L 365.99323,158.00305 L 351.58921,144.25375 L 335.22099,140.98011 L 322.12642,146.21794 C 322.12642,146.21794 321.47169,154.07468 318.19805,154.07468 C 314.92441,154.07468 294.62783,156.03886 294.62783,156.03886 L 263.85559,156.03886 L 251.41574,148.18212 L 240.94009,146.21794 z" id="path20110" style="fill:#9aa1bd;fill-opacity:1;fill-rule:evenodd;stroke:none;stroke-width:1px;stroke-linecap:butt;stroke-linejoin:miter;stroke-opacity:1"/>
      <path d="M 478.92857,573.25532 C 477.55357,572.53344 473.95357,571.09356 470.92857,570.05559 C 465.56681,568.2158 458.92857,562.67301 458.92857,560.03583 C 458.92857,559.36414 458.59107,558.66458 458.17857,558.48124 C 457.76607,558.29791 456.41607,556.19288 455.17857,553.80341 C 453.31266,550.20054 452.92857,547.85333 452.92857,540.05341 C 452.92857,534.44974 453.33278,530.64791 453.92857,530.64791 C 454.47857,530.64791 454.92857,529.7418 454.92857,528.63434 C 454.92857,526.82768 456.59847,522.9562 457.94206,521.64791 C 458.22448,521.37291 459.57448,518.89791 460.94206,516.14791 C 462.30964,513.39791 463.76607,510.99791 464.17857,510.81458 C 464.59107,510.63124 464.92857,509.61874 464.92857,508.56458 C 464.92857,507.51041 465.37857,506.64791 465.92857,506.64791 C 466.47857,506.64791 466.92857,505.9668 466.92857,505.13434 C 466.92857,504.30188 467.32607,502.83938 467.8119,501.88434 C 468.29773,500.9293 469.13383,499.02291 469.6699,497.64791 C 470.20598,496.27291 471.60848,493.19288 472.78658,490.80341 C 473.96467,488.41393 474.92857,485.40299 474.92857,484.11243 C 474.92857,482.82186 475.37857,481.48783 475.92857,481.14791 C 476.47857,480.80799 476.92857,479.45799 476.92857,478.14791 C 476.92857,476.83783 477.37857,475.48783 477.92857,475.14791 C 478.47857,474.80799 478.92857,473.45799 478.92857,472.14791 C 478.92857,470.83783 479.37857,469.48783 479.92857,469.14791 C 480.47857,468.80799 480.92857,467.69896 480.92857,466.68339 C 480.92857,464.64388 484.86952,456.54868 486.39469,455.45533 C 487.49953,454.66329 482.17714,452.37625 480.96806,453.1235 C 478.61623,454.57701 459.03891,446.1487 453.88147,441.46235 C 450.14965,438.0714 446.92857,433.13302 446.92857,430.80256 C 446.92857,429.68242 446.47857,428.48783 445.92857,428.14791 C 445.37857,427.80799 444.92857,426.20643 444.92857,424.58889 C 444.92857,422.97135 445.37857,421.64791 445.92857,421.64791 C 446.47857,421.64791 446.93973,420.18541 446.95336,418.39791 C 446.98858,413.78117 452.85613,406.14295 458.45815,403.42128 C 462.56857,401.42428 462.92857,400.94806 462.92857,397.50766 C 462.92857,395.44972 462.47857,393.48783 461.92857,393.14791 C 461.37857,392.80799 460.92857,390.98143 460.92857,389.08889 C 460.92857,387.19635 460.47857,385.64791 459.92857,385.64791 C 459.37857,385.64791 458.92857,385.0205 458.92857,384.25367 C 458.92857,382.97097 455.25509,378.77664 451.6912,375.99013 C 445.82295,371.40189 433.30181,367.41568 427.53473,368.2997 C 422.52486,369.06766 415.89133,372.27844 414.12187,374.79183 C 413.40318,375.81268 412.15178,376.64791 411.34097,376.64791 C 410.53017,376.64791 408.41819,378.27154 406.64768,380.25597 C 404.87717,382.2404 402.83995,384.3779 402.12052,385.00597 C 401.40109,385.63404 398.85682,388.02902 396.46659,390.32815 C 392.52381,394.12066 384.98259,398.64791 382.60804,398.64791 C 382.08835,398.64791 380.93538,399.43848 380.04587,400.40474 C 377.05255,403.65631 368.04813,406.95797 357.71932,408.59126 C 346.90865,410.30074 318.49989,410.06872 309.42857,408.19686 C 298.32846,405.90635 282.27713,397.79704 276.39388,391.50736 L 271.94926,386.75571 L 266.18891,387.60895 C 260.5441,388.44507 226.34341,390.09251 220.42857,389.8132 C 209.12017,389.27922 196.67444,389.7376 192.42857,390.84446 C 188.27289,391.9278 187.37636,392.57007 187.1194,394.64791 C 186.94936,396.02291 185.93686,399.05551 184.8694,401.38701 C 183.80194,403.71852 182.92857,406.30602 182.92857,407.13701 C 182.92857,407.96801 182.47857,408.64791 181.92857,408.64791 C 181.37857,408.64791 180.92857,409.32291 180.92857,410.14791 C 180.92857,410.97291 180.58842,411.64791 180.17268,411.64791 C 179.75694,411.64791 178.84542,412.88541 178.14708,414.39791 C 175.81992,419.43816 165.81415,425.68811 157.12935,427.5263 C 146.65406,429.74346 142.05022,428.88722 127.19801,421.95957 C 124.3212,420.61772 121.69588,419.08042 121.36395,418.54335 C 121.03203,418.00629 119.03845,416.47981 116.93377,415.15119 C 113.22015,412.80688 110.01471,409.8826 106.92857,406.02357 C 105.4816,404.21421 99.465409,392.24983 97.939949,388.14791 C 97.530869,387.04791 96.719849,385.02291 96.137699,383.64791 C 95.555539,382.27291 94.798819,379.79791 94.456109,378.14791 C 94.113399,376.49791 93.595599,374.02291 93.305459,372.64791 C 93.015319,371.27291 92.395719,369.24791 91.928569,368.14791 C 90.953239,365.85124 90.390589,363.27751 88.430799,352.14791 C 86.370749,340.44899 87.441849,313.68479 90.034209,312.08263 C 90.526109,311.77861 90.928569,310.42533 90.928569,309.07532 C 90.928569,307.72532 91.378569,305.72688 91.928569,304.63434 C 92.478569,303.5418 93.378569,301.75402 93.928569,300.66148 C 94.478569,299.56894 94.928569,297.99394 94.928569,297.16148 C 94.928569,296.32902 95.378569,295.64791 95.928569,295.64791 C 96.478569,295.64791 96.928569,294.52291 96.928569,293.14791 C 96.928569,291.77291 97.378569,290.64791 97.928569,290.64791 C 98.478569,290.64791 98.928569,290.01861 98.928569,289.24946 C 98.928569,287.63356 103.9606,277.81605 106.91666,273.66464 C 108.02321,272.11063 108.92857,270.12114 108.92857,269.24354 C 108.92857,268.36594 109.37857,267.64791 109.92857,267.64791 C 110.47857,267.64791 110.92857,266.97291 110.92857,266.14791 C 110.92857,265.32291 111.30253,264.64791 111.75959,264.64791 C 112.21666,264.64791 113.22916,263.41606 114.00959,261.91046 C 116.6162,256.88188 127.5276,246.64791 130.28243,246.64791 C 131.67289,246.64791 133.08865,246.19791 133.42857,245.64791 C 133.76849,245.09791 135.39963,244.64791 137.05333,244.64791 C 138.70703,244.64791 140.91395,244.19092 141.9576,243.63237 C 145.56725,241.70055 163.96741,245.34115 169.42857,249.06771 C 173.25887,251.6814 178.92857,257.306 178.92857,258.49213 C 178.92857,258.99312 179.59423,259.95547 180.40782,260.63069 C 182.24943,262.15909 184.92342,267.41789 184.94388,269.55155 C 184.9523,270.42955 185.37954,271.81264 185.89331,272.62509 C 186.9631,274.31684 186.26695,274.29034 239.36365,274.6609 L 275.29873,274.91168 L 278.46492,271.45678 C 280.20632,269.55658 282.03553,267.35973 282.52984,266.57489 C 283.02414,265.79005 286.35357,262.67589 289.92857,259.65454 C 293.50357,256.63319 296.57857,253.82069 296.7619,253.40454 C 296.94524,252.98839 297.71905,252.64791 298.48149,252.64791 C 299.24392,252.64791 301.47011,251.74791 303.42857,250.64791 C 305.38703,249.54791 307.82062,248.64791 308.83654,248.64791 C 311.26425,248.64791 312.94415,246.52987 312.44695,244.09587 C 312.2281,243.02449 311.78835,240.91041 311.46975,239.39791 C 311.09746,237.63056 310.24706,236.64791 309.08985,236.64791 C 306.37334,236.64791 302.92857,232.08021 302.92857,228.47816 C 302.92857,223.74942 307.08595,217.46872 311.9262,214.88514 C 314.23145,213.65466 316.75005,212.64791 317.52307,212.64791 C 318.2961,212.64791 318.92857,212.22921 318.92857,211.71746 C 318.92857,211.20571 319.94107,210.64321 321.17857,210.46746 C 322.57561,210.26905 323.39698,209.4845 323.34524,208.39791 C 323.2994,207.43541 323.1869,203.04791 323.09524,198.64791 C 322.93389,190.90336 322.85149,190.64791 320.51467,190.64791 C 318.98732,190.64791 316.16525,188.81156 312.83076,185.64791 L 307.56075,180.64791 L 300.44466,180.64791 C 296.53081,180.64791 292.90107,180.24702 292.37857,179.75704 C 291.85607,179.26707 286.47857,178.60372 280.42857,178.28293 C 274.37857,177.96215 266.05357,177.42024 261.92857,177.07869 C 254.99704,176.50476 254.24188,176.63449 251.96555,178.79022 C 249.9472,180.70163 248.46853,181.10869 243.77515,181.04492 C 238.62087,180.97489 237.7005,180.61984 234.57733,177.49667 C 228.99133,171.91068 226.92857,167.38107 226.92857,160.70083 C 226.92857,157.46339 227.26607,154.66458 227.67857,154.48124 C 228.09107,154.29791 229.68897,152.46041 231.22946,150.39791 C 232.76995,148.33541 234.68245,146.64791 235.47946,146.64791 C 236.27647,146.64791 236.92857,146.19791 236.92857,145.64791 C 236.92857,144.27789 247.56079,144.38071 250.1678,145.77594 C 251.32705,146.39636 253.3141,147.94253 254.58345,149.21188 C 256.88783,151.51626 258.66329,151.92614 271.66025,153.15424 C 280.09478,153.95123 301.40169,153.91947 309.74362,153.09748 C 315.88732,152.49209 316.65314,152.16718 317.74376,149.70331 C 318.56028,147.85866 321.1265,145.88483 325.68898,143.59218 C 331.95483,140.44359 333.06252,140.21462 341.46062,140.33208 C 348.972,140.43715 351.16126,140.85065 354.46083,142.78752 C 358.62452,145.23165 363.68859,149.98617 365.4954,153.14759 C 367.61165,156.85044 374.21948,158.63705 385.99957,158.69146 C 391.18552,158.71541 397.45357,159.13985 399.92857,159.63465 C 404.13082,160.47476 404.59466,160.34875 406.93869,157.73033 C 409.4453,154.9303 417.12041,150.64791 419.63215,150.64791 C 421.9109,150.64791 428.92857,153.09634 428.92857,153.89139 C 428.92857,154.30747 429.79085,154.64791 430.84475,154.64791 C 432.01208,154.64791 433.2799,155.82032 434.08886,157.64791 C 434.81922,159.29791 435.75694,160.64791 436.17268,160.64791 C 436.58842,160.64791 436.92857,161.54791 436.92857,162.64791 C 436.92857,163.74791 437.37857,164.64791 437.92857,164.64791 C 438.49341,164.64791 438.92857,167.49699 438.92857,171.19514 C 438.92857,177.57775 438.82134,177.84803 434.66359,181.94514 C 428.5406,187.97883 426.89388,188.64847 418.19214,188.64328 C 410.96512,188.63897 410.20968,188.43349 407.26141,185.67002 L 404.09424,182.70138 L 386.26141,182.42464 C 368.71098,182.15229 368.37314,182.18693 364.92857,184.61179 C 363.00357,185.96692 361.27857,187.42942 361.09524,187.86179 C 360.9119,188.29416 360.17616,188.64791 359.46025,188.64791 C 356.81319,188.64791 354.92857,193.41587 354.92857,200.11273 C 354.92857,205.98124 355.13259,206.64791 356.92857,206.64791 C 358.02857,206.64791 358.92857,207.09791 358.92857,207.64791 C 358.92857,208.19791 359.83751,208.64791 360.94844,208.64791 C 363.52032,208.64791 370.06553,212.76302 373.93686,216.814 C 376.54284,219.54091 376.92857,220.6792 376.92857,225.64259 C 376.92857,231.52281 374.80171,237.37563 372.31862,238.32847 C 371.55409,238.62185 370.92857,239.84874 370.92857,241.0549 C 370.92857,242.26105 370.50886,243.67541 369.99589,244.19791 C 368.33196,245.89274 373.80159,250.64791 377.415,250.64791 C 378.24746,250.64791 378.92857,251.09791 378.92857,251.64791 C 378.92857,252.19791 379.42611,252.64791 380.03421,252.64791 C 381.77902,252.64791 400.92857,269.62079 400.92857,271.16727 C 400.92857,272.31865 405.36518,275.58001 406.97857,275.61464 C 407.83107,275.63294 408.96243,276.08177 409.49271,276.61205 C 410.95946,278.0788 423.10088,280.35827 435.92857,281.5752 C 442.25357,282.17524 452.37857,283.30604 458.42857,284.0881 C 464.47857,284.87015 474.15357,286.03239 479.92857,286.67085 C 495.18714,288.35777 503.4246,291.12703 511.52296,297.2922 C 513.22488,298.58784 514.90895,299.64791 515.26535,299.64791 C 516.96524,299.64791 528.92857,310.89395 528.92857,312.49192 C 528.92857,313.12771 529.37857,313.64791 529.92857,313.64791 C 530.47857,313.64791 530.92857,314.12933 530.92857,314.71773 C 530.92857,315.30614 532.27857,317.74972 533.92857,320.14791 C 535.57857,322.5461 536.92857,324.98968 536.92857,325.57809 C 536.92857,326.16649 537.37857,326.64791 537.92857,326.64791 C 538.47857,326.64791 538.92857,327.74635 538.92857,329.08889 C 538.92857,330.43143 539.37857,331.80799 539.92857,332.14791 C 540.47857,332.48783 540.92857,333.99939 540.92857,335.50693 C 540.92857,337.01447 541.33709,338.67541 541.83638,339.19791 C 543.80918,341.26238 545.72086,370.25562 543.99779,371.97869 C 543.34271,372.63377 542.92857,378.36327 542.92857,386.77093 L 542.92857,400.49396 L 546.81599,404.32093 C 552.48965,409.90638 554.92857,414.82805 554.92857,420.6919 C 554.92857,423.43263 554.47857,426.56894 553.92857,427.66148 C 553.37857,428.75402 552.47857,430.5418 551.92857,431.63434 C 551.37857,432.72688 550.92857,434.30188 550.92857,435.13434 C 550.92857,435.9668 550.47857,436.64791 549.92857,436.64791 C 549.37857,436.64791 548.92857,437.27226 548.92857,438.03535 C 548.92857,438.79844 547.5397,440.48594 545.8422,441.78535 C 544.1447,443.08476 542.1953,444.66695 541.51021,445.30133 C 540.22718,446.48938 524.44726,451.77411 523.15345,451.44904 C 522.75477,451.34887 521.07857,451.55558 519.42857,451.9084 C 517.77857,452.26123 510.57857,452.82338 503.42857,453.15764 C 496.27857,453.4919 490.04247,454.14756 489.57056,454.61466 C 488.2899,455.88228 490.44221,471.22929 492.03906,472.2162 C 492.52829,472.51856 492.92857,473.63939 492.92857,474.70693 C 492.92857,475.77447 493.37857,476.64791 493.92857,476.64791 C 494.47857,476.64791 494.92857,477.23806 494.92857,477.95935 C 494.92857,478.68064 495.82857,480.23682 496.92857,481.41754 C 498.02857,482.59825 498.92857,484.0331 498.92857,484.6061 C 498.92857,485.17909 499.26872,485.64791 499.68446,485.64791 C 500.1002,485.64791 500.99516,486.88541 501.67326,488.39791 C 502.35135,489.91041 504.26121,492.586 505.91737,494.34368 C 507.57353,496.10135 508.92857,498.01385 508.92857,498.59368 C 508.92857,499.1735 509.37857,499.64791 509.92857,499.64791 C 510.47857,499.64791 510.92857,500.28541 510.92857,501.06458 C 510.92857,501.84374 511.29227,502.63124 511.73678,502.81458 C 512.90528,503.2965 518.92857,512.3112 518.92857,513.57809 C 518.92857,514.16649 519.26872,514.64791 519.68446,514.64791 C 520.35898,514.64791 521.18262,516.31344 523.88789,523.14791 C 524.3233,524.24791 525.18558,526.40658 525.80406,527.94496 C 528.29513,534.14114 526.66546,554.60904 523.67857,554.64011 C 523.26607,554.6444 522.92857,555.29292 522.92857,556.08126 C 522.92857,558.35576 513.44177,567.48399 510.28906,568.24303 C 508.71579,568.6218 505.85357,569.71352 503.92857,570.66906 C 502.00357,571.62461 496.64452,572.91075 492.01957,573.52716 C 481.84509,574.88321 482.03687,574.88719 478.92857,573.25532 z M 507.25103,564.98552 C 513.94787,561.61305 516.92857,559.51617 516.92857,558.17753 C 516.92857,557.84024 517.82857,556.59825 518.92857,555.41754 C 520.02857,554.23682 520.92857,552.68064 520.92857,551.95935 C 520.92857,551.23806 521.37857,550.64791 521.92857,550.64791 C 523.17726,550.64791 523.2796,533.31083 522.04524,530.88434 C 521.55941,529.9293 520.60691,527.79791 519.92857,526.14791 C 519.25023,524.49791 518.21915,522.24791 517.63728,521.14791 C 517.0554,520.04791 515.64541,517.34791 514.50395,515.14791 C 513.36249,512.94791 511.39051,510.02291 510.12176,508.64791 C 508.85301,507.27291 507.06849,504.91041 506.15615,503.39791 C 505.24381,501.88541 504.14438,500.64791 503.71296,500.64791 C 503.28155,500.64791 502.92857,500.16577 502.92857,499.57648 C 502.92857,498.9872 502.36607,497.91241 501.67857,497.18807 C 498.82785,494.18459 496.92857,491.56496 496.92857,490.63648 C 496.92857,490.09277 496.47857,489.64791 495.92857,489.64791 C 495.37857,489.64791 494.92857,488.97291 494.92857,488.14791 C 494.92857,487.32291 494.47857,486.64791 493.92857,486.64791 C 493.37857,486.64791 492.92857,485.97291 492.92857,485.14791 C 492.92857,484.32291 492.59107,483.6444 492.17857,483.64011 C 491.1639,483.62955 488.92857,478.68323 488.92857,476.44855 C 488.92857,475.4582 488.47857,474.64791 487.92857,474.64791 C 487.37857,474.64791 486.92857,472.62291 486.92857,470.14791 C 486.92857,467.67291 486.47857,465.64791 485.92857,465.64791 C 485.37857,465.64791 484.92857,466.97135 484.92857,468.58889 C 484.92857,470.20643 484.47857,471.80799 483.92857,472.14791 C 483.37857,472.48783 482.92857,473.86439 482.92857,475.20693 C 482.92857,476.54947 482.47857,477.64791 481.92857,477.64791 C 481.37857,477.64791 480.92857,478.74635 480.92857,480.08889 C 480.92857,481.43143 480.47857,482.80799 479.92857,483.14791 C 479.37857,483.48783 478.92857,485.06283 478.92857,486.64791 C 478.92857,488.23299 478.47857,489.80799 477.92857,490.14791 C 477.37857,490.48783 476.92857,491.63939 476.92857,492.70693 C 476.92857,493.77447 476.47857,494.64791 475.92857,494.64791 C 475.37857,494.64791 474.92857,495.74635 474.92857,497.08889 C 474.92857,498.43143 474.47857,499.80799 473.92857,500.14791 C 473.37857,500.48783 472.92857,501.63939 472.92857,502.70693 C 472.92857,503.77447 472.59107,504.64951 472.17857,504.65147 C 471.76607,504.65342 470.30357,507.12682 468.92857,510.14791 C 467.55357,513.169 466.09107,515.6424 465.67857,515.64435 C 465.26607,515.64631 464.92857,516.2597 464.92857,517.00745 C 464.92857,517.75519 463.63975,521.01769 462.06453,524.25745 C 457.14518,534.37506 455.33026,543.54207 457.92857,545.14791 C 458.47857,545.48783 458.92857,546.63939 458.92857,547.70693 C 458.92857,548.77447 459.37857,549.64791 459.92857,549.64791 C 460.47857,549.64791 460.92857,550.77291 460.92857,552.14791 C 460.92857,553.52291 461.37857,554.64791 461.92857,554.64791 C 462.47857,554.64791 462.92857,555.18342 462.92857,555.83793 C 462.92857,557.55655 471.00915,564.62402 473.77013,565.32024 C 475.05798,565.64498 477.75798,566.76265 479.77013,567.80393 C 482.84356,569.39444 484.77231,569.60296 491.83181,569.10795 C 498.75242,568.62267 501.47293,567.89533 507.25103,564.98552 z M 498.92857,547.14791 C 498.92857,545.22291 499.3275,543.64791 499.81507,543.64791 C 500.69931,543.64791 501.55166,540.4998 502.59024,533.39791 C 503.19585,529.25672 503.4933,529.13761 509.06255,530.8062 C 512.53021,531.84514 512.92857,532.30274 512.92857,535.24718 C 512.92857,537.05266 512.47857,538.80799 511.92857,539.14791 C 511.37857,539.48783 510.92857,540.86439 510.92857,542.20693 C 510.92857,543.54947 510.47857,544.64791 509.92857,544.64791 C 509.37857,544.64791 508.92857,545.72477 508.92857,547.04092 C 508.92857,549.74931 507.28886,550.64791 502.34678,550.64791 C 499.10692,550.64791 498.92857,550.46529 498.92857,547.14791 z M 506.92857,543.59994 C 506.92857,542.59124 507.37857,541.48783 507.92857,541.14791 C 508.47857,540.80799 508.92857,539.20643 508.92857,537.58889 C 508.92857,535.31458 508.47521,534.64791 506.92857,534.64791 C 505.4748,534.64791 504.92857,535.31458 504.92857,537.08889 C 504.92857,538.43143 504.47857,539.80799 503.92857,540.14791 C 502.84373,540.81838 502.55599,544.942 503.52634,545.91234 C 504.62954,547.01555 506.92857,545.45296 506.92857,543.59994 z M 514.42857,448.54879 C 531.03116,446.44019 537.54749,444.12931 543.28811,438.31438 C 548.11249,433.42756 549.16365,430.55831 549.29129,421.92809 C 549.39849,414.68021 549.19547,413.8239 546.80258,411.43101 C 543.27919,407.90762 536.66228,404.64791 533.03351,404.64791 C 529.44771,404.64791 524.92857,403.04863 524.92857,401.77965 C 524.92857,400.42614 527.79287,399.40081 533.42857,398.73692 L 538.42857,398.14791 L 538.7016,385.14791 C 538.85177,377.99791 539.47072,371.17202 540.07704,369.97927 C 540.722,368.7105 540.87975,366.42827 540.45721,364.47927 C 540.05998,362.64702 539.51971,357.77291 539.25661,353.64791 C 538.99352,349.52291 538.36208,345.72041 537.85342,345.19791 C 537.34475,344.67541 536.92857,342.7568 536.92857,340.93434 C 536.92857,339.11188 536.47857,336.72688 535.92857,335.63434 C 535.37857,334.5418 534.47857,332.75402 533.92857,331.66148 C 533.37857,330.56894 532.92857,329.20013 532.92857,328.61967 C 532.92857,328.03921 532.02857,326.59825 530.92857,325.41754 C 529.82857,324.23682 528.92857,322.68064 528.92857,321.95935 C 528.92857,321.23806 528.47857,320.64791 527.92857,320.64791 C 527.37857,320.64791 526.92857,319.74791 526.92857,318.64791 C 526.92857,317.54791 526.47857,316.64791 525.92857,316.64791 C 525.37857,316.64791 524.92449,316.08541 524.9195,315.39791 C 524.9145,314.71041 523.47873,313.02291 521.72889,311.64791 C 519.97905,310.27291 517.62064,308.23741 516.48797,307.12458 C 513.68237,304.36812 505.58313,299.63723 498.92857,296.86787 C 491.59656,293.81659 482.46231,291.76423 470.92857,290.57661 C 465.70357,290.03859 457.37857,289.1395 452.42857,288.57863 C 447.47857,288.01775 438.47857,287.14159 432.42857,286.6316 C 426.37857,286.12162 419.62857,285.21035 417.42857,284.60656 C 415.22857,284.00277 412.31372,283.24304 410.95112,282.91828 C 409.58852,282.59351 406.30622,281.04982 403.65711,279.48785 C 401.00801,277.92588 398.60322,276.64791 398.31314,276.64791 C 397.4648,276.64791 394.92857,273.86946 394.92857,272.9401 C 394.92857,272.47223 394.02857,271.44075 392.92857,270.64791 C 391.82857,269.85507 390.92857,268.83528 390.92857,268.3817 C 390.92857,267.12355 386.17702,262.64791 384.84132,262.64791 C 384.19333,262.64791 382.93538,261.83906 382.04587,260.85047 C 379.54026,258.06578 374.29343,254.64791 372.5242,254.64791 C 371.6466,254.64791 370.92857,254.19791 370.92857,253.64791 C 370.92857,253.09791 370.05513,252.64791 368.98759,252.64791 C 367.92005,252.64791 366.76849,252.19791 366.42857,251.64791 C 366.08865,251.09791 364.12709,250.64791 362.06955,250.64791 C 360.01201,250.64791 357.84076,250.1601 357.24455,249.56389 C 355.96204,248.28138 335.18307,248.94884 324.42857,250.618 C 320.57857,251.21555 315.51607,251.96204 313.17857,252.27687 C 310.84107,252.59171 308.92857,253.25399 308.92857,253.7486 C 308.92857,254.24322 308.02857,254.64791 306.92857,254.64791 C 305.82857,254.64791 304.92857,255.09791 304.92857,255.64791 C 304.92857,256.19791 304.25871,256.64791 303.44,256.64791 C 302.62129,256.64791 301.15879,257.29237 300.19,258.08005 C 291.99723,264.74125 287.35172,268.97582 286.01156,271.00428 C 285.14092,272.32209 282.93742,274.91851 281.11491,276.77411 L 277.80125,280.14791 L 252.61491,279.66599 C 216.85864,278.98183 188.32691,279.09351 181.97097,279.94251 C 176.01363,280.73826 172.91975,282.99118 167.94924,290.1529 C 157.0006,305.92818 149.69044,325.44401 151.24167,334.75685 C 153.71453,349.60267 157.77438,362.10428 162.23356,368.60446 C 163.94782,371.10336 167.8915,375.64768 170.99729,378.70296 L 176.64419,384.25802 L 218.67449,384.04709 C 246.32472,383.90833 262.65272,383.43177 266.39818,382.65422 L 272.09157,381.47228 L 277.02095,385.6288 C 286.18684,393.35759 296.87306,398.93768 309.92857,402.81237 C 313.12183,403.76009 320.96228,404.13555 336.92857,404.10535 C 358.6391,404.06429 359.72635,403.96697 367.91523,401.33163 C 372.58289,399.82948 377.98289,397.59018 379.91523,396.35541 C 381.84757,395.12064 384.76201,393.44381 386.39176,392.62914 C 388.02152,391.81446 393.5782,386.9576 398.73993,381.83612 C 408.20569,372.44417 416.80309,365.64791 419.21831,365.64791 C 419.93895,365.64791 421.05166,365.12482 421.691,364.48548 C 422.35732,363.81916 427.32401,363.12423 433.32865,362.85718 C 443.78095,362.39231 443.81948,362.39922 450.92918,366.01113 C 454.84809,368.00203 458.61055,370.19727 459.2902,370.88943 C 461.60907,373.251 467.0785,383.64791 466.00196,383.64791 C 464.70699,383.64791 464.55668,386.34301 465.82535,386.81458 C 466.31858,386.99791 466.96969,389.84791 467.27225,393.14791 C 467.57482,396.44791 467.84627,399.26041 467.87547,399.39791 C 467.90468,399.53541 468.94107,399.6548 470.17857,399.66322 C 475.07714,399.69656 475.10251,401.30978 470.2337,403.16774 C 467.59088,404.17625 463.67355,406.27186 461.52853,407.82465 C 459.38351,409.37744 457.07611,410.64791 456.40098,410.64791 C 453.79965,410.64791 452.75293,413.71164 452.71925,421.4243 C 452.69795,426.30183 453.20553,430.2036 454.05675,431.70572 C 457.01619,436.92816 467.3059,444.64791 471.30748,444.64791 C 472.12051,444.64791 473.51098,445.37318 474.39742,446.25962 C 475.60137,447.46357 478.97168,448.04561 487.71885,448.5602 C 505.84709,449.62667 505.94189,449.62663 514.42857,448.54879 z M 499.17857,441.94218 C 496.64924,441.45501 496.06617,438.64791 498.49431,438.64791 C 500.87827,438.64791 504.05958,440.62691 503.39756,441.69808 C 503.0747,442.22049 502.49959,442.58663 502.11955,442.51173 C 501.73951,442.43683 500.41607,442.18053 499.17857,441.94218 z M 510.07181,441.78343 C 508.14602,440.52653 509.6914,439.87505 515.43682,439.52173 C 519.29624,439.2844 520.42857,439.54744 520.42857,440.68134 C 520.42857,442.38199 512.3122,443.24567 510.07181,441.78343 z M 473.42857,439.43227 C 470.22472,437.58234 468.92857,435.93683 468.92857,433.71934 C 468.92857,432.58005 468.51766,431.64791 468.01543,431.64791 C 467.49975,431.64791 467.5643,430.42392 468.16375,428.8358 C 469.35995,425.66672 473.50321,422.62976 479.42857,420.57882 C 487.01035,417.95454 517.46346,419.79384 526.92857,423.44771 C 530.05558,424.65484 534.92857,429.45375 534.92857,431.32609 C 534.92857,434.06799 531.27737,436.89346 528.7657,436.09521 L 526.42857,435.35243 L 528.61056,434.3777 C 530.48727,433.53935 530.62718,433.10811 529.61056,431.29541 C 528.96047,430.13625 527.77859,428.67093 526.98416,428.03914 C 524.68765,426.21277 514.64812,425.22948 497.92857,425.19338 C 484.6723,425.16476 481.87315,425.43484 478.59166,427.0591 C 475.26143,428.70748 474.83314,429.30093 475.34842,431.55309 C 477.52486,441.06585 477.36857,441.70727 473.42857,439.43227 z M 482.13124,439.79433 C 481.08311,439.12945 481.10777,438.74408 482.2596,437.78814 C 483.31259,436.91424 484.42714,436.88697 486.52305,437.68383 C 488.78998,438.54572 489.06589,438.94926 487.89469,439.69001 C 486.08097,440.83713 483.8391,440.8777 482.13124,439.79433 z M 480.1875,401.98861 C 478.04045,401.12117 481.45388,398.64791 484.79812,398.64791 C 488.18337,398.64791 489.90229,400.41707 487.80669,401.7444 C 486.33083,402.67919 482.22272,402.81086 480.1875,401.98861 z M 501.17857,401.85747 C 493.01071,401.56992 490.82836,400.52573 495.17857,398.98665 C 499.14697,397.58265 518.12613,398.4169 519.77714,400.06791 C 521.06188,401.35265 520.94673,401.59901 518.83463,402.08429 C 517.5113,402.38834 514.85357,402.52704 512.92857,402.39251 C 511.00357,402.25798 505.71607,402.01721 501.17857,401.85747 z M 202.66562,316.27579 C 200.78239,312.0778 200.31143,304.64791 201.92857,304.64791 C 202.47857,304.64791 202.92857,303.96326 202.92857,303.12647 C 202.92857,300.93353 208.00589,293.57766 209.06691,294.23341 C 209.55877,294.53739 209.80452,295.09251 209.61304,295.46701 C 206.29009,301.9658 205.37274,305.22839 204.92283,312.14791 L 204.40268,320.14791 L 202.66562,316.27579 z M 444.96037,312.39791 C 444.9889,306.79188 446.40356,302.64791 448.28881,302.64791 C 449.33228,302.64791 449.01606,307.4758 447.92857,308.14791 C 447.37857,308.48783 446.92857,310.06283 446.92857,311.64791 C 446.92857,313.23299 447.37857,314.80799 447.92857,315.14791 C 449.68817,316.2354 448.99888,318.64791 446.92857,318.64791 C 445.13851,318.64791 444.93191,317.99184 444.96037,312.39791 z M 214.27415,308.7525 C 213.64088,307.07478 213.54224,305.28741 214.0396,304.5025 C 214.51169,303.75748 214.91915,302.02291 214.94506,300.64791 C 215.00589,297.42045 217.13722,294.64376 219.53881,294.66322 C 220.67892,294.67246 220.99183,294.96998 220.3276,295.41322 C 219.02217,296.28434 217.92668,300.35459 217.23654,306.89791 C 216.66135,312.35136 215.82921,312.87232 214.27415,308.7525 z M 439.00166,307.89791 C 439.09366,303.17762 441.91084,298.2462 444.75411,297.82836 C 447.4764,297.4283 447.56674,298.76827 444.92857,300.41584 C 443.49985,301.30809 442.92857,302.74786 442.92857,305.45638 C 442.92857,309.00695 441.56363,311.64791 439.72857,311.64791 C 439.28857,311.64791 438.96146,309.96041 439.00166,307.89791 z M 226.92857,304.34791 C 226.92857,301.22096 228.37309,298.64791 230.12857,298.64791 C 231.30079,298.64791 231.1041,302.16856 229.76805,305.10086 C 228.16631,308.61631 226.92857,308.2881 226.92857,304.34791 z M 157.92857,422.30774 C 161.50357,421.65754 165.77857,420.23156 167.42857,419.13888 C 171.28352,416.58601 174.92857,413.00795 174.92857,411.7767 C 174.92857,411.24753 175.28232,410.66458 175.71469,410.48124 C 178.20153,409.42677 180.73015,403.70398 180.94413,398.64594 C 181.26813,390.98731 181.26023,390.96424 178.09719,390.33163 C 176.53993,390.02018 173.89511,388.50143 172.2198,386.95663 C 170.5445,385.41184 168.10612,383.21973 166.80118,382.08529 C 165.49625,380.95085 163.30357,378.51709 161.92857,376.67693 C 160.55357,374.83677 158.97857,372.83995 158.42857,372.23955 C 157.43125,371.15084 155.92774,368.10854 153.8119,362.89791 C 153.19773,361.38541 152.29773,359.36652 151.8119,358.41148 C 151.32607,357.45644 150.92857,355.5705 150.92857,354.2205 C 150.92857,352.87049 150.52829,351.51856 150.03906,351.2162 C 147.89565,349.8915 145.96513,325.21135 147.85694,323.31954 C 148.44634,322.73014 148.92857,321.43082 148.92857,320.43216 C 148.92857,317.77298 151.29053,310.64791 152.17205,310.64791 C 152.58814,310.64791 152.92857,309.77447 152.92857,308.70693 C 152.92857,307.63939 153.37857,306.48783 153.92857,306.14791 C 154.47857,305.80799 154.92857,304.65643 154.92857,303.58889 C 154.92857,302.52135 155.37857,301.64791 155.92857,301.64791 C 156.47857,301.64791 156.92857,300.77447 156.92857,299.70693 C 156.92857,298.63939 157.37857,297.48783 157.92857,297.14791 C 158.47857,296.80799 158.92857,295.65643 158.92857,294.58889 C 158.92857,293.52135 159.37857,292.64791 159.92857,292.64791 C 160.47857,292.64791 160.92857,292.20569 160.92857,291.66519 C 160.92857,290.65329 163.39592,287.66766 170.53753,280.03779 C 173.70374,276.65511 175.36716,275.64791 177.78753,275.64791 C 180.71062,275.64791 180.92857,275.40506 180.92857,272.14791 C 180.92857,270.22291 180.47857,268.64791 179.92857,268.64791 C 179.37857,268.64791 178.92857,267.97662 178.92857,267.15615 C 178.92857,266.33568 175.57172,262.28568 171.46891,258.15615 C 166.10533,252.75765 163.29865,250.64791 161.48034,250.64791 C 158.93473,250.64791 154.92857,253.31079 154.92857,255.00286 C 154.92857,256.63688 150.61858,259.73792 149.66829,258.78763 C 148.62894,257.74828 150.45901,254.06612 153.33889,251.40225 C 154.38957,250.43039 154.97243,249.35844 154.63413,249.02014 C 154.29584,248.68185 149.99556,248.38619 145.07796,248.36312 C 134.25907,248.31237 130.54255,249.79964 125.19606,256.3194 C 120.81136,261.66631 117.37875,265.29643 116.23539,265.79564 C 115.12249,266.28155 105.97514,283.72257 101.37351,294.13243 C 99.710199,297.89519 99.259429,299.3694 96.782299,309.14791 C 93.753049,321.10593 92.490389,349.64566 94.636549,357.64791 C 95.300339,360.12291 96.108959,363.49791 96.433489,365.14791 C 97.164629,368.86519 98.839819,375.17556 100.15001,379.14791 C 102.96654,387.68726 113.45187,406.05119 116.59082,407.9422 C 117.31598,408.37907 119.94485,410.49826 122.43275,412.65152 C 127.22244,416.79697 133.51759,420.03753 140.92857,422.17263 C 146.51947,423.78336 149.67711,423.80846 157.92857,422.30774 z M 154.31343,417.43388 C 152.72676,416.21617 151.08114,414.66338 150.65651,413.98325 C 150.23187,413.30311 149.32929,412.16192 148.65077,411.44727 C 147.4584,410.19141 143.71816,402.78167 141.68521,397.64791 C 141.14072,396.27291 140.29773,394.36652 139.8119,393.41148 C 139.32607,392.45644 138.92857,390.76894 138.92857,389.66148 C 138.92857,388.55402 138.52964,387.64791 138.04207,387.64791 C 136.31422,387.64791 133.48019,368.69629 134.98327,367.19321 C 136.46355,365.71293 137.66455,368.08278 138.48356,374.10009 C 139.17037,379.14614 140.40755,382.44139 146.19811,394.64791 C 150.65227,404.03729 154.51186,409.34377 159.09097,412.37408 C 162.7963,414.82615 162.94817,415.09652 161.02069,415.80954 C 159.87002,416.23519 158.92857,417.27296 158.92857,418.11569 C 158.92857,420.21879 157.707,420.03833 154.31343,417.43388 z M 133.51152,361.78212 C 133.08075,361.08512 132.99836,360.24479 133.32843,359.91471 C 134.2234,359.01975 135.1992,360.33601 134.71582,361.78616 C 134.3771,362.80233 134.14155,362.80154 133.51152,361.78212 z M 130.92857,335.58946 C 130.92857,319.05917 131.97074,309.55361 134.86912,299.64791 C 135.91515,296.07291 137.30031,291.12291 137.94725,288.64791 C 138.59419,286.17291 139.52964,283.36652 140.02603,282.41148 C 140.52243,281.45644 140.92857,279.99394 140.92857,279.16148 C 140.92857,278.32902 141.37857,277.64791 141.92857,277.64791 C 143.1686,277.64791 143.26471,285.32213 142.0342,286.08263 C 141.5423,286.38664 140.91331,288.32569 140.63645,290.39164 C 140.35959,292.45759 139.61213,295.94791 138.97543,298.14791 C 136.35915,307.18795 134.96682,317.80221 134.94824,328.84869 C 134.92829,340.71852 133.5151,350.64791 131.84571,350.64791 C 131.33013,350.64791 130.92857,344.05473 130.92857,335.58946 z M 146.32158,265.06612 C 146.65543,264.19614 146.92857,263.29614 146.92857,263.06612 C 146.92857,262.83611 147.65171,262.64791 148.53556,262.64791 C 149.59008,262.64791 149.93387,263.19171 149.53556,264.2297 C 149.20171,265.09968 148.92857,265.99968 148.92857,266.2297 C 148.92857,266.45971 148.20543,266.64791 147.32158,266.64791 C 146.26706,266.64791 145.92327,266.10411 146.32158,265.06612 z M 367.14067,237.67825 C 367.3405,234.08656 367.34976,230.64636 367.16127,230.03336 C 366.62025,228.27393 362.19156,226.64791 357.94053,226.64791 C 355.79887,226.64791 353.76849,226.19791 353.42857,225.64791 C 353.08865,225.09791 351.03709,224.64791 348.86955,224.64791 C 346.70201,224.64791 344.92857,224.2525 344.92857,223.76923 C 344.92857,222.20212 350.82563,220.3905 353.67073,221.08357 C 355.18754,221.45307 358.22857,222.12078 360.42857,222.56736 C 367.095,223.9206 370.92857,226.093 370.92857,228.51746 C 370.92857,229.07429 371.37857,229.80799 371.92857,230.14791 C 372.51953,230.51314 372.92857,229.3901 372.92857,227.40234 C 372.92857,224.98191 372.01726,223.07131 369.67857,220.58858 C 365.14574,215.77658 359.24739,213.11845 350.92857,212.13878 C 341.88503,211.07375 331.5079,211.90151 330.34659,213.78055 C 330.05176,214.2576 328.28865,214.64791 326.42857,214.64791 C 324.56849,214.64791 322.76849,215.09791 322.42857,215.64791 C 322.08865,216.19791 320.71209,216.64791 319.36955,216.64791 C 318.02701,216.64791 316.92857,217.09791 316.92857,217.64791 C 316.92857,218.19791 316.18355,218.64791 315.27296,218.64791 C 314.36238,218.64791 312.11238,219.79581 310.27296,221.1988 C 306.41757,224.13945 305.92349,227.42835 308.92857,230.14791 C 310.19084,231.29025 310.92857,231.5055 310.92857,230.73147 C 310.92857,227.51951 320.20112,222.64791 326.31472,222.64791 C 328.85234,222.64791 330.92857,223.00791 330.92857,223.44791 C 330.92857,225.31907 328.2536,226.64825 324.47857,226.65288 C 321.76475,226.65621 319.52712,227.39853 317.69624,228.90288 C 314.97193,231.14132 314.96732,231.16732 316.12556,237.75899 L 317.2872,244.37006 L 342.03228,244.28933 L 366.77736,244.20859 L 367.14067,237.67825 z M 332.92857,223.64791 C 332.92857,223.09791 333.82857,222.64791 334.92857,222.64791 C 336.02857,222.64791 336.92857,223.09791 336.92857,223.64791 C 336.92857,224.19791 336.02857,224.64791 334.92857,224.64791 C 333.82857,224.64791 332.92857,224.19791 332.92857,223.64791 z M 334.42857,207.64791 C 334.76849,207.09791 338.57081,206.64791 342.87818,206.64791 L 350.70976,206.64791 L 351.34181,202.89791 C 352.40205,196.60738 351.60464,190.11862 349.53326,188.18117 C 346.65832,185.49212 332.92857,183.19562 332.92857,185.4038 C 332.92857,185.81954 331.51619,186.78487 329.78995,187.54897 L 326.65134,188.93826 L 327.22432,197.78239 C 327.53947,202.64665 328.0784,207.08133 328.42196,207.63721 C 329.22841,208.94208 333.62389,208.94991 334.42857,207.64791 z M 324.92857,186.61653 C 324.92857,186.04926 325.71607,185.28448 326.67857,184.91701 C 327.64107,184.54955 329.30092,183.43867 330.36713,182.4484 C 331.83662,181.08357 333.93956,180.64791 339.05811,180.64791 C 342.77195,180.64791 346.08865,181.09791 346.42857,181.64791 C 346.76849,182.19791 347.85936,182.64791 348.85273,182.64791 C 349.8461,182.64791 351.92504,183.6439 353.47261,184.86121 C 355.38801,186.36787 356.41549,186.68714 356.6908,185.86121 C 356.91324,185.1939 357.95774,184.64791 359.0119,184.64791 C 360.06607,184.64791 360.92857,184.19791 360.92857,183.64791 C 360.92857,183.09791 361.4216,182.64791 362.0242,182.64791 C 362.6268,182.64791 364.5393,181.63541 366.2742,180.39791 C 369.24237,178.28072 370.37302,178.15239 385.42857,178.22382 C 401.36181,178.29942 401.45453,178.31298 407.65005,181.47382 C 412.75806,184.07983 415.03997,184.64791 420.40005,184.64791 C 423.99074,184.64791 426.92986,184.31041 426.93145,183.89791 C 426.93303,183.48541 428.28173,182.24791 429.92857,181.14791 C 431.57541,180.04791 432.92411,178.58541 432.92569,177.89791 C 432.92728,177.21041 433.37857,176.64791 433.92857,176.64791 C 435.75599,176.64791 434.99631,168.29136 432.92857,165.64791 C 431.85303,164.27291 430.96304,162.77827 430.95081,162.32648 C 430.90261,160.54613 425.06159,156.64791 422.44214,156.64791 C 421.60968,156.64791 420.92857,156.19791 420.92857,155.64791 C 420.92857,153.53076 415.70465,155.13701 412.21724,158.32648 C 411.50847,158.9747 410.92857,160.71224 410.92857,162.18768 L 410.92857,164.87032 L 396.67857,164.25973 C 382.01142,163.63126 373.08415,162.93 369.21773,162.10258 C 368.00178,161.84237 363.63605,158.25861 359.51612,154.13869 C 355.39619,150.01876 351.36607,146.64791 350.56029,146.64791 C 349.75451,146.64791 348.94112,146.18556 348.75275,145.62046 C 348.21388,144.00385 333.84666,144.07389 330.1478,145.71116 C 328.37723,146.4949 326.92857,147.47628 326.92857,147.89202 C 326.92857,148.30776 326.14107,148.6581 325.17857,148.67055 C 324.21607,148.683 321.88038,150.483 319.98816,152.67055 C 317.53277,155.50916 315.76023,156.64791 313.79718,156.64791 C 312.28436,156.64791 310.76849,157.09791 310.42857,157.64791 C 310.04773,158.26413 301.60452,158.64791 288.42857,158.64791 C 275.25262,158.64791 266.80941,158.26413 266.42857,157.64791 C 266.08865,157.09791 263.58761,156.64791 260.8707,156.64791 C 256.46117,156.64791 255.48837,156.21849 251.80913,152.64791 C 249.02391,149.94494 246.79333,148.64791 244.93011,148.64791 C 241.22789,148.64791 235.48005,151.1396 232.97188,153.83179 C 230.28345,156.71749 230.26141,163.23815 232.92857,166.64791 C 234.00411,168.02291 234.8941,169.68751 234.90633,170.34702 C 234.94954,172.67694 241.48283,176.64791 245.27296,176.64791 C 247.28355,176.64791 248.92857,176.2525 248.92857,175.76923 C 248.92857,175.28596 250.23518,174.34933 251.83216,173.68785 C 254.70095,172.49955 275.18548,172.73655 284.42857,174.06498 C 286.62857,174.38116 293.37857,175.16074 299.42857,175.79736 C 307.02833,176.59707 310.89224,177.44849 311.92857,178.55176 C 314.18395,180.95282 323.13717,187.64791 324.09268,187.64791 C 324.55242,187.64791 324.92857,187.18379 324.92857,186.61653 z M 374.63712,171.90361 C 373.99924,168.56678 374.48365,167.64791 376.8806,167.64791 C 379.01946,167.64791 380.22786,170.12957 379.38386,172.78879 C 378.45981,175.70019 375.2484,175.10132 374.63712,171.90361 z M 410.92857,172.64791 C 410.92857,170.29425 411.56232,170.13881 413.45238,172.02886 C 414.93532,173.51181 414.41891,174.64791 412.2619,174.64791 C 411.52857,174.64791 410.92857,173.74791 410.92857,172.64791 z M 382.92857,170.64791 C 382.92857,169.54791 383.37857,168.64791 383.92857,168.64791 C 384.47857,168.64791 384.92857,169.54791 384.92857,170.64791 C 384.92857,171.74791 384.47857,172.64791 383.92857,172.64791 C 383.37857,172.64791 382.92857,171.74791 382.92857,170.64791 z M 244.17857,167.15208 C 242.68895,165.46016 242.50398,160.64791 243.92857,160.64791 C 244.47857,160.64791 244.92857,159.74791 244.92857,158.64791 C 244.92857,157.54791 245.37857,156.64791 245.92857,156.64791 C 247.21424,156.64791 247.21283,159.24825 245.92587,161.65296 C 245.25559,162.90538 245.25559,163.73199 245.92587,164.14624 C 247.08395,164.86198 247.29935,168.66671 246.17857,168.60987 C 245.76607,168.58895 244.86607,167.93294 244.17857,167.15208 z M 248.92857,165.14791 C 248.92857,163.77291 249.37857,162.64791 249.92857,162.64791 C 250.47857,162.64791 250.92857,163.77291 250.92857,165.14791 C 250.92857,166.52291 250.47857,167.64791 249.92857,167.64791 C 249.37857,167.64791 248.92857,166.52291 248.92857,165.14791 z" id="path19593" style="fill:#000000"/>
    </g>
  </g>
</svg>
